<?xml version="1.0" encoding="UTF-8"?>
<svg id="Layer_2" data-name="Layer 2" xmlns="http://www.w3.org/2000/svg" viewBox="0 0 51.42 52.03">
  <defs>
    <style>
      .cls-1 {
        fill: #fff;
      }

      .cls-2 {
        fill: #4cc0d9;
      }

      .cls-3 {
        fill: #06243e;
      }
    </style>
  </defs>
  <g id="_Ñëîé_1" data-name="Ñëîé 1">
    <g>
      <path class="cls-3" d="M45.59,37.41c-.43,1.49-1.67,2.84-2.14,4.72-.08.33-.2,1.72-.29,1.78-.04.04-.96-.04-1.14,0v-5.66c.96.06,1.84-.06,2.47-.84,1.57-1.94-.45-4.72-2.82-3.65-1.2.53-1.45,1.57-1.33,2.82h-.63c.55-3.92-5.25-4.08-4.7-.18.18,1.39,1.78,2.06,3.02,1.86l-.02,5.47c-.08.27-1.08.24-1.18.08-.08-.12-.14-1.02-.2-1.27-.78-3.33-3.31-5.06-2.02-8.72.51-1.43,1.88-2.9,3.33-3.43-.39-.37-.96-.76-1.14-1.27-1.92.9-3.33,2.61-3.94,4.61-1.04-1.86-2.63-3.37-4.65-4.08,2.86-2.59,1.96-7.55-1.92-8.51-5.14-1.29-8.29,5.06-4.37,8.51-2.39.86-4.47,2.94-5.27,5.37-.31.9-.94,2.78.49,2.9h15.52c.27,0,.57.76.45.94-.06.1-2.04,1.06-2.33,1.18-8.43,3.53-18.01-1.35-20.13-10.19-1.94-8.08,3.12-16.09,11.17-17.91-.16-.59-.98-.82-1.06-1.47-5.94,1.55-10.74,6.61-11.88,12.68-2.2,11.52,7.66,21.52,19.23,19.44,2.16-.39,4.06-1.29,5.96-2.37.24.59,1.23,2.72.92,3.23-.12.22-2.74,1.33-3.16,1.49-.59.22-2.14.55-2.51.84-.55.43-1.22,3-1.53,3.76h-5.43c-.39-.69-1.08-3.51-1.65-3.84-1.12-.35-2.29-.65-3.39-1.12-.65-.29-2.53-1.45-3-1.49-.65-.06-3.33,1.61-3.74,1.53l-3.63-3.59-.08-.31c.37-.71.61-1.49.9-2.25.22-.53.65-.86.55-1.53-.55-1-1.1-1.96-1.51-3-.27-.61-.98-3.16-1.22-3.39-.45-.43-3.61-1.31-3.68-1.49l.04-5.37c.12-.22,3.29-1.06,3.7-1.49.24-.24.82-2.55,1.04-3.12.45-1.12,1.06-2.16,1.61-3.23.06-.22.02-.43-.04-.65-.22-.9-1.1-2.1-1.37-3.04-.04-.14-.08-.27,0-.41.67-.45,3.1-3.43,3.59-3.55.14-.04.22-.02.35.02.86.24,2.53,1.37,3.31,1.43.59.04,1.47-.59,1.94-.94l-1.16-1.16c-.16.08-.63.31-.76.31l-3.43-1.51-.65-.02-5.02,4.94c-.04.06-.08.14-.08.22-.14.67,1.12,2.82,1.41,3.61.06.16.18.35.14.55-1,1.63-1.67,3.47-2.25,5.31l-3.76,1.47c-.2.14-.33.55-.37.8-.18,1.31-.14,4.82-.02,6.17.06.49.12.76.57,1.02.98.55,2.55.88,3.61,1.37.47,1.88,1.2,3.72,2.2,5.39-.41,1.18-.98,2.33-1.51,3.47l-.02.78,4.8,4.84c.1.1.22.22.39.24.71.14,2.92-1.31,3.8-1.51.12-.02.22-.08.35-.02,1.65.92,3.43,1.63,5.27,2.16.33.25,1.1,3,1.43,3.61.1.2.29.35.49.45l6.88.04c.37,0,.55-.22.71-.53.29-.51,1.22-3.49,1.43-3.61,1.65-.37,3.21-1.04,4.72-1.84-.06.65.02,1.29.45,1.8.16.16.53.35.57.49.14.45-.04.82.35,1.43.18.27.78.65.82.76.06.2-.02.55.04.8.1.63.78,1.31,1.41,1.43,1.06.18,2.82.12,3.47-.9.33-.53.22-1.27.35-1.47.02-.04.51-.35.65-.55.53-.69.22-1.37.39-1.65.16-.27.92-.27,1.04-1.23.14-1.33,0-2.31.35-3.72.41-1.61,1.27-2.61,1.84-4.08-.55-.12-.76-.96-1.35-.94ZM24.6,22.65c4.27-.55,4.84,5.86,1.02,6.37-4.49.59-5.17-5.82-1.02-6.37ZM18.13,36.15c.57-2.78,2.96-4.88,5.74-5.31,3.7-.57,7.19,1.69,8.08,5.31h-13.82ZM43.14,36.43c-.29.22-.86.1-1.22.14-.31-2.45,2.37-1.06,1.22-.14ZM39.71,38.25h.63v5.49c0,.16-.47.18-.63.16v-5.66ZM37.16,36.56c-.71-.12-.82-1.41.2-1.37.78.04.69.78.67,1.39-.29-.04-.61.04-.88-.02ZM40.86,50.28c-.08.06-2.08.2-1.78-.41h1.9s-.08.39-.12.41ZM41.75,48.19c-.53.1-2.63.06-3.25,0-.37-.02-.59-.08-.57-.53h4.08c.02.29.04.47-.27.53ZM42.71,46.01c-1.71.18-3.82-.16-5.57-.02-.24-.04-.29-.16-.24-.41h6.17c.04.33-.04.39-.35.43Z"/>
      <path class="cls-3" d="M40.86,50.28c-.08.06-2.08.2-1.78-.41h1.9s-.08.39-.12.41Z"/>
      <path class="cls-3" d="M41.75,48.19c-.53.1-2.63.06-3.25,0-.37-.02-.59-.08-.57-.53h4.08c.02.29.04.47-.27.53Z"/>
      <path class="cls-3" d="M43.06,45.58c.04.33-.04.39-.35.43-1.71.18-3.82-.16-5.57-.02-.24-.04-.29-.16-.24-.41h6.17Z"/>
      <path class="cls-1" d="M38.04,36.58c-.29-.04-.61.04-.88-.02-.71-.12-.82-1.41.2-1.37.78.04.69.78.67,1.39Z"/>
      <path class="cls-1" d="M40.35,38.25v5.49c0,.16-.47.18-.63.16v-5.66h.63Z"/>
      <path class="cls-1" d="M43.14,36.43c-.29.22-.86.1-1.22.14-.31-2.45,2.37-1.06,1.22-.14Z"/>
      <path class="cls-2" d="M25.63,29.02c-4.49.59-5.17-5.82-1.02-6.37,4.27-.55,4.84,5.86,1.02,6.37Z"/>
      <path class="cls-2" d="M31.95,36.15h-13.82c.57-2.78,2.96-4.88,5.74-5.31,3.7-.57,7.19,1.69,8.08,5.31Z"/>
      <path class="cls-3" d="M49.72,22.63c-.37-.51-2.96-1.16-3.68-1.55-.18-.08-.24-.12-.33-.31-.08-.16-.55-1.69-.55-1.86.02-.27.53-.41.74-.63.22-.22.47-.74.51-1.06.14-1-.86-3.61-1.2-4.74-.06-.14-.12-.27-.24-.39,2.08-1.25,2.33-4.21.31-5.63-.71-.51-1.43-.55-2.25-.69-.55-1.37-.8-3.14-1.41-4.45-.51-1.1-1.59-1.59-2.74-1.16-.94.37-2.63,2.63-3.45,3.47-.35.37-2.61,2.65-2.88,2.65-.39.02-1.61-.63-2.12-.63-.51-1.08-.8-2.63-1.37-3.61-.27-.45-.53-.51-1.02-.57-1.16-.1-5.31-.16-6.35.06-.14.02-.31.1-.45.16-.76,1.2-1,2.72-1.67,3.98-1.71.35-3.14,1.14-4.68,1.88l1.16,1.16,4.8-1.74,1.49-3.72,5.27.02c.37.12,1.12,3.06,1.53,3.59.29.37,1.16.47,1.61.57.12.02.08.14.02.2-.45.55-3.88,1.45-4.78,1.74-.37.12-.92.49-1.23.55-1.27.27-2.55.16-4.02.55.08.65.9.88,1.06,1.47.41-.1.82-.27,1.25-.22.04.2-.14.33-.18.51-.04.14,0,.49-.02.55.49.24.73,1.02,1.37.94.1-1.29,1.06-2.27,2.25-2.74,1.04-.41,2.33-.67,3.41-1.04l1.98,6.39c-1.88.29-3.86,1.78-5.76.84.02.86,1.22,1.23,1.47,2,.67-.02,1.25-.22,1.9-.29.96,2.16.96,6.1,4.02,6.35.74.06,2.63-.22,2.57-1.2l-2-6.53h2.78c2.41,3.04,3.35,7.04,2.88,10.88-1.02.04-2.02.31-2.92.74.18.51.76.9,1.14,1.27,4.41-1.61,8.88,2.51,7.66,7.02.59-.02.8.82,1.35.94.71-1.82.69-3.35.02-5.21-.2-.51-.51-.96-.76-1.45.04-.18,2.82-1.06,3.23-1.29.18-.1.33-.22.41-.43l.04-6.98c-.02-.12-.08-.25-.16-.37ZM44.96,9.59c-.02.08-.29.65-.33.69-.16.12-.18-.04-.22-.14-.39-.69-.51-1.84-.82-2.59,1.02.2,1.53,1.02,1.37,2.04ZM38.51,2.62c.55-.31.76-1.29,1.49-.82l4.59,14.33c.08.39.37.96-.16,1.1-.2.06-1.37-.22-1.49-.51-1.43-4.41-2.84-8.84-4.21-13.27-.1-.29-.39-.57-.22-.84ZM34.16,23.57c-.59.04-1.2-.06-1.55-.59-.41-.61-1.06-2.92-1.35-3.78-.04-.16-.29-.92-.24-.96.35.02,1.2-.49,1.43-.22l1.72,5.55ZM34.22,15.81c-.29.02-.65.27-.78-.06l-1.98-6.45c2.06-1.49,4-3.18,5.7-5.1l3.92,12.25c-2.31-.43-4.51-.69-6.86-.63ZM48.19,29.13c-.69.04-2.65,1.18-3.19,1.14-.1,0-1.37-.94-1.69-1.1-.39-.18-1.74-.55-1.82-.61-.24-.18,0-.76.02-1.04.1-3.37-.57-6.7-2.31-9.6.24-.02.49,0,.76.04.41.04,3,.61,3.21.76.49.33.84,2.98,1.27,3.45.43.49,3.63,1.35,3.76,1.53v5.43Z"/>
      <path class="cls-2" d="M44.96,9.59c-.02.08-.29.65-.33.69-.16.12-.18-.04-.22-.14-.39-.69-.51-1.84-.82-2.59,1.02.2,1.53,1.02,1.37,2.04Z"/>
      <path class="cls-1" d="M45.59,37.41c-.43,1.49-1.67,2.84-2.14,4.72-.08.33-.2,1.72-.29,1.78-.04.04-.96-.04-1.14,0v-5.66c.96.06,1.84-.06,2.47-.84,1.57-1.94-.45-4.72-2.82-3.65-1.2.53-1.45,1.57-1.33,2.82h-.63c.55-3.92-5.25-4.08-4.7-.18.18,1.39,1.78,2.06,3.02,1.86l-.02,5.47c-.08.27-1.08.24-1.18.08-.08-.12-.14-1.02-.2-1.27-.78-3.33-3.31-5.06-2.02-8.72.51-1.43,1.88-2.9,3.33-3.43,4.41-1.61,8.88,2.51,7.66,7.02Z"/>
      <path class="cls-2" d="M48.19,23.69v5.43c-.69.04-2.65,1.18-3.19,1.14-.1,0-1.37-.94-1.69-1.1-.39-.18-1.74-.55-1.82-.61-.24-.18,0-.76.02-1.04.1-3.37-.57-6.7-2.31-9.6.24-.02.49,0,.76.04.41.04,3,.61,3.21.76.49.33.84,2.98,1.27,3.45.43.49,3.63,1.35,3.76,1.53Z"/>
      <path class="cls-1" d="M44.43,17.24c-.2.06-1.37-.22-1.49-.51-1.43-4.41-2.84-8.84-4.21-13.27-.1-.29-.39-.57-.22-.84.55-.31.76-1.29,1.49-.82l4.59,14.33c.08.39.37.96-.16,1.1Z"/>
      <path class="cls-2" d="M41.08,16.45c-2.31-.43-4.51-.69-6.86-.63-.29.02-.65.27-.78-.06l-1.98-6.45c2.06-1.49,4-3.18,5.7-5.1l3.92,12.25Z"/>
      <path class="cls-3" d="M34.16,23.57c-.59.04-1.2-.06-1.55-.59-.41-.61-1.06-2.92-1.35-3.78-.04-.16-.29-.92-.24-.96.35.02,1.2-.49,1.43-.22l1.72,5.55Z"/>
      <path class="cls-2" d="M34.98,43.46c-.12.22-2.74,1.33-3.16,1.49-.59.22-2.14.55-2.51.84-.55.43-1.22,3-1.53,3.76h-5.43c-.39-.69-1.08-3.51-1.65-3.84-1.12-.35-2.29-.65-3.39-1.12-.65-.29-2.53-1.45-3-1.49-.65-.06-3.33,1.61-3.74,1.53l-3.63-3.59-.08-.31c.37-.71.61-1.49.9-2.25.22-.53.65-.86.55-1.53-.55-1-1.1-1.96-1.51-3-.27-.61-.98-3.16-1.22-3.39-.45-.43-3.61-1.31-3.68-1.49l.04-5.37c.12-.22,3.29-1.06,3.7-1.49.24-.24.82-2.55,1.04-3.12.45-1.12,1.06-2.16,1.61-3.23.06-.22.02-.43-.04-.65-.22-.9-1.1-2.1-1.37-3.04-.04-.14-.08-.27,0-.41.67-.45,3.1-3.43,3.59-3.55.14-.04.22-.02.35.02.86.24,2.53,1.37,3.31,1.43.59.04,1.47-.59,1.94-.94l4.8-1.74,1.49-3.72,5.27.02c.37.12,1.12,3.06,1.53,3.59.29.37,1.16.47,1.61.57.12.02.08.14.02.2-.45.55-3.88,1.45-4.78,1.74-.37.12-.92.49-1.23.55-1.27.27-2.55.16-4.02.55-5.94,1.55-10.74,6.61-11.88,12.68-2.2,11.52,7.66,21.52,19.23,19.44,2.16-.39,4.06-1.29,5.96-2.37.24.59,1.23,2.72.92,3.23Z"/>
      <path class="cls-3" d="M50.17,6.11c1.39-.22,1.66,1.15.66,1.6-.22.1-1.66.56-1.85.57-.85.06-1.2-1-.66-1.51.15-.14,1.6-.62,1.85-.66Z"/>
      <path class="cls-3" d="M46.8,1.5c.39-.02.84.38.87.76.03.33-.82,2.02-1.09,2.25-.7.59-1.62,0-1.35-.93.04-.14.86-1.72.93-1.79.12-.13.47-.28.64-.29Z"/>
      <path class="cls-3" d="M48.07,11.13c.24-.06.53-.05.77.03.11.03,1.52.81,1.62.89.64.55.19,1.59-.73,1.46-.22-.03-1.71-.78-1.89-.94-.45-.38-.37-1.3.23-1.44Z"/>
      <path class="cls-1" d="M39.71,28.39c-1.02.04-2.02.31-2.92.74-1.92.9-3.33,2.61-3.94,4.61-1.04-1.86-2.63-3.37-4.65-4.08,2.86-2.59,1.96-7.55-1.92-8.51-5.14-1.29-8.29,5.06-4.37,8.51-2.39.86-4.47,2.94-5.27,5.37-.31.9-.94,2.78.49,2.9h15.52c.27,0,.57.76.45.94-.06.1-2.04,1.06-2.33,1.18-8.43,3.53-18.01-1.35-20.13-10.19-1.94-8.08,3.12-16.09,11.17-17.91.41-.1.82-.27,1.25-.22.04.2-.14.33-.18.51-.04.14,0,.49-.02.55-.04.08-.2,0-.31.59-.45,3.1,1.86,5.84,5.02,5.8.67-.02,1.25-.22,1.9-.29.96,2.16.96,6.1,4.02,6.35.74.06,2.63-.22,2.57-1.2l-2-6.53h2.78c2.41,3.04,3.35,7.04,2.88,10.88Z"/>
      <path class="cls-1" d="M31.85,16.34c-1.88.29-3.86,1.78-5.76.84-1.43-.69-2-1.88-1.88-3.45.1-1.29,1.06-2.27,2.25-2.74,1.04-.41,2.33-.67,3.41-1.04l1.98,6.39Z"/>
      <path class="cls-3" d="M27.56,19.18c-3.16.04-5.47-2.69-5.02-5.8.1-.59.27-.51.31-.59.49.24.73,1.02,1.37.94-.12,1.57.45,2.76,1.88,3.45.02.86,1.22,1.23,1.47,2Z"/>
    </g>
  </g>
</svg>