<?xml version="1.0" encoding="UTF-8"?>
<svg id="Layer_2" data-name="Layer 2" xmlns="http://www.w3.org/2000/svg" viewBox="0 0 49.8 51.05">
  <defs>
    <style>
      .cls-1 {
        fill: #fff;
      }

      .cls-2 {
        fill: #4cc0d9;
      }

      .cls-3 {
        fill: #06243e;
      }
    </style>
  </defs>
  <g id="_Ñëîé_1" data-name="Ñëîé 1">
    <g>
      <path class="cls-3" d="M45.96,17.87c-2.21-.16-4.65.16-6.9,0l-.98-3.63c3.63-1.82,2.31-7-1.82-6.72l-1.57-5.74c-.51-1.16-1.37-1.59-2.08-1.74-.8-.14-1.63.04-2.35.47-.63.39-1.16.94-1.37,1.67-.33,1.12-.04,1.02-.9,2-1.57,1.82-3.98,3.53-6.06,4.68-.57.33-2.37,1.31-2.9,1.41-.31.06-.69-.08-1.12-.04-1.08.14-4.47,1.14-5.39,1.69-2.02,1.23-2.98,3.63-2.55,5.96H3.55c-1.61,0-3.53,2.02-3.55,3.63v25.79c.2,2.08,1.74,3.59,3.84,3.74h42.22c2.02-.16,3.57-1.72,3.74-3.74v-25.7c-.2-2.06-1.76-3.57-3.84-3.74ZM37.61,12.22l-.76-2.7c1.39.1,1.84,1.86.76,2.7ZM30.97,2.5c.16-.22.39-.39.67-.43.29-.04.53,0,.74.1.27.14.45.41.51.69,1.41,5,2.86,10.04,4.12,15.09.16.61.59,1.84.53,2.37-.1,1.18-1.96,1.33-2.23.14L30.81,3.62c-.1-.39-.06-.8.16-1.12ZM29.24,5.74l3.63,13.54c-3.74-1.25-7.76-1.12-11.64-.8l-1.57-6.27c3.51-1.61,7-3.57,9.58-6.47ZM22.19,26.41l-1.12.63-2.25-5.41,1.29-.35,2.08,5.12ZM12.09,15.46c.84-2.37,3.47-2.45,5.55-3.06l1.78,6.98c-2.1.39-4.19,1.69-6.17.14-1.25-.98-1.69-2.55-1.16-4.06ZM10.82,19.87c1.43,1.96,3.74,2.72,6.1,2.31l2.51,6.1c.8.92,1.67.92,2.72.45,1.59-.73,2.43-1.37,1.84-3.21-.55-1.67-1.51-3.37-2.08-5.06,3.45-.37,7.33-.35,10.64.78,1.35.45,1.02.63,1.92,1.37,2.14,1.76,5.35,0,5.08-2.74h6.57l-21.17,18.29L3.98,19.87h6.84ZM2.21,47.97l-.2-.86.06-25.72.18-.31,15.29,13.29-15.33,13.6ZM4.08,49.05l15.01-13.23c.1,0,.53.35.63.43,1.49,1.25,2.92,2.78,4.43,3.94.61.47.98.43,1.59,0,1.57-1.1,3.14-2.86,4.7-4.08.1-.08.37-.31.47-.29l15.21,13.23H4.08ZM47.81,47.41s-.12.24-.16.24l-14.68-12.7-.49-.59,15.17-13.11s.16.24.16.27v25.89Z"/>
      <path class="cls-2" d="M37.61,12.22l-.76-2.7c1.39.1,1.84,1.86.76,2.7Z"/>
      <polygon class="cls-1" points="17.54 34.37 2.21 47.97 2 47.11 2.06 21.38 2.25 21.08 17.54 34.37"/>
      <path class="cls-1" d="M46.12,49.05H4.08l15.01-13.23c.1,0,.53.35.63.43,1.49,1.25,2.92,2.78,4.43,3.94.61.47.98.43,1.59,0,1.57-1.1,3.14-2.86,4.7-4.08.1-.08.37-.31.47-.29l15.21,13.23Z"/>
      <path class="cls-1" d="M47.81,21.53v25.89s-.12.24-.16.24l-14.68-12.7-.49-.59,15.17-13.11s.16.24.16.27Z"/>
      <path class="cls-3" d="M46.12,19.87l-21.17,18.29L3.98,19.87h6.84c1.43,1.96,3.74,2.72,6.1,2.31l2.51,6.1c.8.92,1.67.92,2.72.45,1.59-.73,2.43-1.37,1.84-3.21-.55-1.67-1.51-3.37-2.08-5.06,3.45-.37,7.33-.35,10.64.78,1.35.45,1.02.63,1.92,1.37,2.14,1.76,5.35,0,5.08-2.74h6.57Z"/>
      <polygon class="cls-1" points="22.19 26.41 21.07 27.04 18.82 21.63 20.11 21.28 22.19 26.41"/>
      <path class="cls-1" d="M19.42,19.38c-2.1.39-4.19,1.69-6.17.14-1.25-.98-1.69-2.55-1.16-4.06.84-2.37,3.47-2.45,5.55-3.06l1.78,6.98Z"/>
      <path class="cls-3" d="M37.55,20.32c-.1,1.18-1.96,1.33-2.23.14L30.81,3.62c-.1-.39-.06-.8.16-1.12.16-.22.39-.39.67-.43.29-.04.53,0,.74.1.27.14.45.41.51.69,1.41,5,2.86,10.04,4.12,15.09.16.61.59,1.84.53,2.37Z"/>
      <path class="cls-2" d="M32.87,19.28c-3.74-1.25-7.76-1.12-11.64-.8l-1.57-6.27c3.51-1.61,7-3.57,9.58-6.47l3.63,13.54Z"/>
      <path class="cls-3" d="M41.2,2.27c.95-.22,1.63.51,1.23,1.43-.11.25-2.32,2.47-2.58,2.6-1.06.53-1.98-.41-1.4-1.4.18-.3,2.05-2.17,2.37-2.41.12-.09.2-.19.37-.23Z"/>
      <path class="cls-3" d="M41.4,13.52c.2-.04.35-.02.55,0,.47.06,3.01.72,3.35.93.94.56.57,1.95-.73,1.82-.46-.05-3.07-.76-3.42-.96-.72-.43-.52-1.63.24-1.79Z"/>
      <path class="cls-3" d="M45.38,7.66c.94-.02,1.43,1.24.63,1.81-.28.19-2.83.9-3.24.94-1.55.16-1.81-1.47-.46-1.95.49-.18,2.66-.78,3.08-.79Z"/>
    </g>
  </g>
</svg>