<?xml version="1.0" encoding="UTF-8"?>
<svg xmlns="http://www.w3.org/2000/svg" viewBox="0 0 44.66 51.24">
  <defs>
    <style>
      .cls-1 {
        fill: #fff;
      }

      .cls-2, .cls-3 {
        fill: #4cc0d9;
      }

      .cls-4, .cls-3 {
        isolation: isolate;
      }

      .cls-3 {
        mix-blend-mode: overlay;
        opacity: .5;
      }

      .cls-5 {
        fill: #06243e;
      }
    </style>
  </defs>
  <g class="cls-4">
    <g id="Layer_2" data-name="Layer 2">
      <g id="_Ñëîé_1" data-name="Ñëîé 1">
        <g>
          <path class="cls-5" d="M40.89,0H3.68C1.92.14.57,1.29.14,2.98-.14,14.56.1,26.19.02,37.79c.14,2.06,1.25,3.61,3.35,3.94l17.95.02,5.21,8.88,1.12.61h.9c1.29-.47,1.92-1.45,1.67-2.84l-3.78-6.68h15.05c1.59,0,3.33-2.41,3.16-3.94V4.06c-.08-2.27-1.43-3.9-3.76-4.06ZM16.82,30.79c.9.22,1.27-.22,1.8-.82,1.18-1.27,2.16-2.88,3.35-4.14.24-.14,1.43-.18,1.61,0,.12.1.65,1.25.73,1.47,2.8,7.59-6.51,13.84-12.49,8.39-4.72-4.33-2.23-12.45,4.1-13.27v7.45c0,.29.61.84.9.92ZM35.34,23.48c-.02.18-.02.37-.12.51l-.53.14-13.09.02-.47.22-3.59,4.35v-15.97l.14-.14h17.42c.12.04.27.31.25.45-.22,3.37.29,7.08,0,10.41ZM28.58,48.63c.33.82-.51,1.41-1.1.69l-4.74-8.25,1.04-.63,4.8,8.19ZM43.04,38.08c0,.9-1.02,2-1.94,2.06h-15.6c-.29-.65-.86-1.27-1.63-1.31-.24,0-.55.16-.73.06l-.65-1.27c.9-.76,1.8-1.57,2.43-2.57,1.8-2.76,1.98-6.43.43-9.33h9.76c.06,0,.57-.16.69-.2.71-.31,1.06-1,1.14-1.76-.22-3.47.33-7.37,0-10.8-.08-.9-.45-1.55-1.35-1.86-6.1-.16-12.29-.14-18.42,0-.65.24-1.1.78-1.22,1.47l-.06,8.15c-3.76.57-6.98,3.31-7.86,7.06-1.78,7.64,5.86,13.9,12.96,10.66.27.53,1.16,1.31.39,1.69H3.57c-.94-.08-1.96-1.14-1.96-2.06V8.92h41.42v29.15ZM43.04,7.17l-.14.14H1.78l-.16-.14c.1-1.08-.1-2.35,0-3.41.14-1.18,1.02-2.16,2.27-2.14h37.12c.94-.02,2.04,1.14,2.04,2.04v3.51Z"/>
          <path class="cls-3" d="M11.82,35.69c-4.72-4.33-2.23-12.45,4.1-13.27v7.45c0,.29.61.84.9.92.9.22,1.27-.22,1.8-.82,1.18-1.27,2.16-2.88,3.35-4.14.24-.14,1.43-.18,1.61,0,.12.1.65,1.25.73,1.47,2.8,7.59-6.51,13.84-12.49,8.39Z"/>
          <path class="cls-5" d="M27.48,49.33l-4.74-8.25,1.04-.63,4.8,8.19c.33.82-.51,1.41-1.1.69Z"/>
          <path class="cls-1" d="M43.04,8.92v29.15c0,.9-1.02,2-1.94,2.06h-15.6c-.29-.65-.86-1.27-1.63-1.31-.24,0-.55.16-.73.06l-.65-1.27c.9-.76,1.8-1.57,2.43-2.57,1.8-2.76,1.98-6.43.43-9.33h9.76c.06,0,.57-.16.69-.2.71-.31,1.06-1,1.14-1.76-.22-3.47.33-7.37,0-10.8-.08-.9-.45-1.55-1.35-1.86-6.1-.16-12.29-.14-18.42,0-.65.24-1.1.78-1.22,1.47l-.06,8.15c-3.76.57-6.98,3.31-7.86,7.06-1.78,7.64,5.86,13.9,12.96,10.66.27.53,1.16,1.31.39,1.69H3.57c-.94-.08-1.96-1.14-1.96-2.06V8.92h41.42Z"/>
          <path class="cls-2" d="M35.34,13.07c.02-.14-.12-.41-.25-.45h-17.42l-.14.14v15.97l3.59-4.35.47-.22,13.09-.02.53-.14c.1-.14.1-.33.12-.51.29-3.33-.22-7.04,0-10.41ZM20.52,17.37c.14.18.88.22,1.16.35,2.18.88,1.43,4.43-1.29,4-1.22-.2-2.35-2.25-.9-2.49.78-.12.78.8,1.2.88.37.04.61-.02.63-.43.02-.67-.69-.53-1.2-.71-2.49-.92-1.12-4.92,1.57-3.88.84.33,1.9,1.82.8,2.25-1.14.47-1.2-1.43-1.94-.69-.14.16-.18.57-.04.73ZM25.44,19.13v1c.49.06,1.16-.1,1.65,0,.73.12,1.06,1.2.33,1.51-.31.14-2.41.12-2.84.08-.59-.06-.69-.41-.76-.94-.1-1.16-.12-3.88,0-5.02.04-.37.31-.74.67-.82.41-.1,2.25-.08,2.65,0,1.02.18.69,1.57.12,1.57h-1.84v1c2.47-.41,2.59,2.06,0,1.61ZM34.03,20.97c-.08.59-.61.98-1.2.69-.04-.02-.39-.37-.39-.39v-2.45c-.41.51-.8,1.31-1.55.69-.27-.2-.33-.53-.55-.69-.1.67.12,1.74,0,2.35-.16.71-1.39.82-1.57-.02.08-1.74-.18-3.7-.04-5.39.04-.29.02-.43.27-.63,1.2-.96,1.76,1.53,2.39,2.08.71-.82,1.51-3.68,2.65-1.53-.14,1.63.22,3.7,0,5.29Z"/>
          <path class="cls-2" d="M41,1.61H3.88c-1.25-.02-2.12.96-2.27,2.14-.1,1.06.1,2.33,0,3.41l.16.14h41.12l.14-.14v-3.51c0-.9-1.1-2.06-2.04-2.04ZM7.33,6.17c-2.67,1.31-4.04-3.21-1.12-3.63,2.08-.29,3.08,2.67,1.12,3.63ZM11.49,6.23c-2.76,1.04-3.65-3.39-.9-3.7,2.21-.25,3,2.9.9,3.7ZM16.11,6.12c-2.8,1.47-4.12-3.27-1.2-3.59,2.12-.22,2.94,2.69,1.2,3.59ZM39.4,5.21h-19.52c-1-.1-.98-1.39.02-1.57l19.19-.02c1.12-.08,1.47,1.47.31,1.59Z"/>
          <path class="cls-5" d="M39.4,5.21h-19.52c-1-.1-.98-1.39.02-1.57l19.19-.02c1.12-.08,1.47,1.47.31,1.59Z"/>
          <path class="cls-5" d="M10.6,2.53c-2.76.31-1.86,4.74.9,3.7,2.1-.8,1.31-3.94-.9-3.7ZM11.09,4.61c-.29.45-.73-.14-.55-.39.16-.24.78.04.55.39Z"/>
          <path class="cls-1" d="M11.09,4.61c-.29.45-.73-.14-.55-.39.16-.24.78.04.55.39Z"/>
          <path class="cls-5" d="M14.9,2.53c-2.92.33-1.59,5.06,1.2,3.59,1.74-.9.92-3.82-1.2-3.59ZM14.88,4.61c-.25-.35.37-.63.53-.39.18.25-.27.84-.53.39Z"/>
          <path class="cls-1" d="M14.88,4.61c-.25-.35.37-.63.53-.39.18.25-.27.84-.53.39Z"/>
          <path class="cls-5" d="M6.21,2.53c-2.92.43-1.55,4.94,1.12,3.63,1.96-.96.96-3.92-1.12-3.63ZM6.7,4.7c-.31.31-.88-.29-.37-.53.37-.18.57.33.37.53Z"/>
          <path class="cls-1" d="M6.7,4.7c-.31.31-.88-.29-.37-.53.37-.18.57.33.37.53Z"/>
          <path class="cls-5" d="M34.03,20.97c-.08.59-.61.98-1.2.69-.04-.02-.39-.37-.39-.39v-2.45c-.41.51-.8,1.31-1.55.69-.27-.2-.33-.53-.55-.69-.1.67.12,1.74,0,2.35-.16.71-1.39.82-1.57-.02.08-1.74-.18-3.7-.04-5.39.04-.29.02-.43.27-.63,1.2-.96,1.76,1.53,2.39,2.08.71-.82,1.51-3.68,2.65-1.53-.14,1.63.22,3.7,0,5.29Z"/>
          <path class="cls-5" d="M27.42,21.64c-.31.14-2.41.12-2.84.08-.59-.06-.69-.41-.76-.94-.1-1.16-.12-3.88,0-5.02.04-.37.31-.74.67-.82.41-.1,2.25-.08,2.65,0,1.02.18.69,1.57.12,1.57h-1.84v1c2.47-.41,2.59,2.06,0,1.61v1c.49.06,1.16-.1,1.65,0,.73.12,1.06,1.2.33,1.51Z"/>
          <path class="cls-5" d="M20.4,21.72c-1.22-.2-2.35-2.25-.9-2.49.78-.12.78.8,1.2.88.37.04.61-.02.63-.43.02-.67-.69-.53-1.2-.71-2.49-.92-1.12-4.92,1.57-3.88.84.33,1.9,1.82.8,2.25-1.14.47-1.2-1.43-1.94-.69-.14.16-.18.57-.04.73.14.18.88.22,1.16.35,2.18.88,1.43,4.43-1.29,4Z"/>
        </g>
      </g>
    </g>
  </g>
</svg>