<?xml version="1.0" encoding="UTF-8"?>
<svg id="Layer_2" data-name="Layer 2" xmlns="http://www.w3.org/2000/svg" viewBox="0 0 50.89 50.91">
  <defs>
    <style>
      .cls-1 {
        fill: #fff;
      }

      .cls-2 {
        fill: #4cc0d9;
      }

      .cls-3 {
        fill: #06243e;
      }
    </style>
  </defs>
  <g id="_Ñëîé_1" data-name="Ñëîé 1">
    <g>
      <path class="cls-3" d="M45.8,5.11c.3-2.55-1.3-4.81-3.87-5.09l-37.96-.02C1.82.18.18,1.84,0,3.97v37.96c.28,2.6,2.55,4.18,5.09,3.87-.28,2.58,1.34,4.89,3.97,5.11h37.85c2.15-.18,3.79-1.85,3.97-3.97V8.96c-.28-2.58-2.55-4.16-5.09-3.85ZM45.13,18.37l3.53,3.45-2.29,2.35-3.53-3.45,2.29-2.35ZM29.82,35.36l.61-1.74,2.96,2.96c-.45.02-1.5.77-1.85.55-.16-.1-1.7-1.64-1.72-1.76ZM29.91,37.96l-1.18.32.32-1.16c.12-.12.95.71.85.83ZM32.44,33.15l-1.05-1.07,10.14-10.12,1.2,1.11-10.28,10.08ZM43.96,24.29c.16.26,1.2.99,1.05,1.28l-10.08,10.06c-.16-.26-1.2-.99-1.05-1.26l10.08-10.08ZM1.7,3.77c0-.85,1.56-2.23,2.49-2.07h37.63c.85-.04,2.27,1.28,2.27,2.07v3.02H1.7v-3.02ZM3.97,44.12c-.85.04-2.27-1.28-2.27-2.07V8.5h42.4v8.43l-14.66,14.68-3.14,8.21c-.04.63.49,1.01,1.09.87l7.95-3.06,8.76-8.68v13.1c0,.85-1.54,2.23-2.47,2.07H3.97ZM49.19,47.14c0,.79-1.42,2.11-2.27,2.07H9.16c-1.74-.18-2.62-1.74-2.37-3.41h35.36c1.68,0,3.71-2.27,3.65-3.95v-14.54l3.39-3.45v23.28ZM49.19,19.83l-3.39-3.33v-2.92h3.39v6.24ZM49.19,11.88h-3.39v-5.09c1.16-.1,2.21.08,2.9,1.07.12.16.49.85.49.99v3.02Z"/>
      <path class="cls-3" d="M29.91,37.96l-1.18.32.32-1.16c.12-.12.95.71.85.83Z"/>
      <path class="cls-2" d="M33.39,36.58c-.45.02-1.5.77-1.85.55-.16-.1-1.7-1.64-1.72-1.76l.61-1.74,2.96,2.96Z"/>
      <polygon class="cls-1" points="48.66 21.82 46.37 24.17 42.84 20.72 45.13 18.37 48.66 21.82"/>
      <polygon class="cls-2" points="42.72 23.07 32.44 33.15 31.39 32.08 41.52 21.96 42.72 23.07"/>
      <path class="cls-2" d="M45.01,25.57l-10.08,10.06c-.16-.26-1.2-.99-1.05-1.26l10.08-10.08c.16.26,1.2.99,1.05,1.28Z"/>
      <polygon class="cls-1" points="49.19 13.58 49.19 19.83 45.8 16.5 45.8 13.58 49.19 13.58"/>
      <path class="cls-1" d="M49.19,23.86v23.28c0,.79-1.42,2.11-2.27,2.07H9.16c-1.74-.18-2.62-1.74-2.37-3.41h35.36c1.68,0,3.71-2.27,3.65-3.95v-14.54l3.39-3.45Z"/>
      <path class="cls-1" d="M44.1,16.93v-8.43H1.7v33.56c0,.79,1.42,2.11,2.27,2.07h37.65c.93.16,2.47-1.22,2.47-2.07v-13.1l-8.76,8.68-7.95,3.06c-.61.14-1.14-.24-1.09-.87l3.14-8.21,14.66-14.68ZM30.53,27.15H8.5v-1.7h22.04v1.7ZM27.15,12.73h13.56v1.7h-13.56v-1.7ZM23.76,12.73h1.68v1.7h-1.68v-1.7ZM23.76,16.12h15.27v1.7h-15.27v-1.7ZM23.76,19.53h11.86v1.68h-11.86v-1.68ZM5.09,12.77c.04-.45.16-.73.61-.87l13.77-.02c.49-.02.87.3.89.79-.18,2.74.26,5.8,0,8.5-.04.59-.28.89-.89.89-4.34-.3-9.21.41-13.48,0-.53-.04-.83-.22-.89-.79.2-2.74-.24-5.8,0-8.5ZM6.79,25.45v1.7h-1.7v-1.7h1.7ZM23.76,40.71H5.09v-1.68h18.67v1.68ZM23.76,37.33H5.09v-1.7h18.67v1.7ZM23.76,33.94H5.09v-1.7h18.67v1.7ZM27.15,30.53H5.09v-1.68h22.06v1.68Z"/>
      <path class="cls-2" d="M49.19,8.86v3.02h-3.39v-5.09c1.16-.1,2.21.08,2.9,1.07.12.16.49.85.49.99Z"/>
      <path class="cls-2" d="M41.83,1.7H4.2c-.93-.16-2.49,1.22-2.49,2.07v3.02h42.4v-3.02c0-.79-1.42-2.11-2.27-2.07ZM6.79,5.11h-1.7v-1.7h1.7v1.7ZM10.18,5.11h-1.68v-1.7h1.68v1.7ZM13.58,5.11h-1.7v-1.7h1.7v1.7Z"/>
      <path class="cls-3" d="M20.36,12.67c-.02-.49-.41-.81-.89-.79l-13.77.02c-.45.14-.57.43-.61.87-.24,2.7.2,5.76,0,8.5.06.57.36.75.89.79,4.28.41,9.14-.3,13.48,0,.61,0,.85-.3.89-.89.26-2.7-.18-5.76,0-8.5ZM18.67,20.36H6.79v-6.77h11.88v6.77Z"/>
      <rect class="cls-2" x="6.79" y="13.58" width="11.88" height="6.77"/>
      <rect class="cls-3" x="8.5" y="25.45" width="22.04" height="1.7"/>
      <rect class="cls-3" x="5.09" y="28.85" width="22.06" height="1.68"/>
      <rect class="cls-3" x="5.09" y="32.24" width="18.67" height="1.7"/>
      <rect class="cls-3" x="5.09" y="35.62" width="18.67" height="1.7"/>
      <rect class="cls-3" x="5.09" y="39.03" width="18.67" height="1.68"/>
      <rect class="cls-3" x="23.76" y="16.12" width="15.27" height="1.7"/>
      <rect class="cls-3" x="27.15" y="12.73" width="13.56" height="1.7"/>
      <rect class="cls-3" x="23.76" y="19.53" width="11.86" height="1.68"/>
      <rect class="cls-3" x="23.76" y="12.73" width="1.68" height="1.7"/>
      <rect class="cls-3" x="5.09" y="25.45" width="1.7" height="1.7"/>
      <rect class="cls-3" x="5.09" y="3.41" width="1.7" height="1.7"/>
      <rect class="cls-3" x="8.5" y="3.41" width="1.68" height="1.7"/>
      <rect class="cls-3" x="11.88" y="3.41" width="1.7" height="1.7"/>
    </g>
  </g>
</svg>